<svg xmlns="http://www.w3.org/2000/svg" viewBox="0 0 512 512">
  <rect width="512" height="512" rx="112" fill="#0f7f72"/>
  <path d="M138 150c0-18 15-32 33-32h73c36 0 65 29 65 65v211c0 6-5 11-11 11H181c-24 0-43-19-43-43V150z" fill="#e9fff8"/>
  <path d="M309 183c0-36 29-65 65-65h18c18 0 33 14 33 32v212c0 24-19 43-43 43h-62c-6 0-11-5-11-11V183z" fill="#bde9df"/>
  <path d="M182 190h76M182 237h76M182 284h76M182 331h76M348 190h36M348 237h36M348 284h36" stroke="#0f7f72" stroke-width="22" stroke-linecap="round"/>
</svg>
